<?xml version="1.0" encoding="utf-8"?>
<svg fill="currentColor" height="1080" version="1.1" width="1080" xmlns="http://www.w3.org/2000/svg">
    <path d="M0 0 C1.82522494 1.17855195 3.53351744 2.44057521 5.24682617 3.77636719 C5.85913086 4.23350098 6.47143555 4.69063477 7.10229492 5.16162109 C11.3011067 8.32527805 15.29090239 11.68993388 19.24682617 15.15136719 C21.24594826 16.48601645 23.24608922 17.81913995 25.24682617 19.15136719 C27.66713782 20.91076113 30.04986765 22.71879379 32.43432617 24.52636719 C38.50937587 29.10829961 44.61500087 33.64571642 50.74682617 38.15136719 C56.94981884 42.71406634 63.14227381 47.29017081 69.30932617 51.90136719 C69.9822168 52.4028125 70.65510742 52.90425781 71.34838867 53.42089844 C73.77328462 55.2383048 76.10097764 57.00551865 78.24682617 59.15136719 C78.37182617 61.52636719 78.37182617 61.52636719 77.24682617 64.15136719 C71.62977362 67.25303931 65.76981156 69.6686043 59.80932617 72.02636719 C58.9346167 72.37441406 58.05990723 72.72246094 57.15869141 73.08105469 C51.07308515 75.48197558 44.9451701 77.71927322 38.76391602 79.85961914 C26.25969435 84.20465336 13.89196447 88.96463728 1.69995117 94.12011719 C-7.88953746 98.15136719 -7.88953746 98.15136719 -11.75317383 98.15136719 C-11.75317383 99.14136719 -11.75317383 100.13136719 -11.75317383 101.15136719 C-11.05311258 101.14946859 -10.35305132 101.14756998 -9.63177609 101.14561385 C31.87902765 101.03367205 73.38981384 100.94790843 114.90073822 100.89604054 C119.88735764 100.88978717 124.87397675 100.88331554 129.8605957 100.87670898 C130.8533227 100.87539743 131.84604969 100.87408588 132.86885932 100.87273458 C148.93335164 100.85099059 164.99775431 100.81157459 181.06219348 100.76560321 C197.55138678 100.7188106 214.04053319 100.69106586 230.52979016 100.68092471 C240.70084072 100.67407138 250.87163785 100.65244234 261.04261038 100.61178485 C268.02155165 100.58531188 275.00036231 100.5773765 281.97935012 100.5838603 C286.00318993 100.58705612 290.02658753 100.58223072 294.05034828 100.55533981 C297.74095314 100.53085663 301.43082197 100.5298757 305.12146202 100.54687271 C307.07508759 100.54995767 309.02870558 100.52852781 310.98220325 100.50596064 C321.53050706 100.59466254 331.74826118 103.32633179 339.44286728 110.95667839 C350.2535797 124.10894563 349.23512191 138.08712847 349.12084961 154.37353516 C349.12320245 157.12796262 349.13602702 159.88231995 349.14828491 162.63671875 C349.17159157 169.31531489 349.15764071 175.99332412 349.13034639 182.67188512 C349.09970513 190.46645104 349.10473194 198.26087709 349.1105738 206.05548622 C349.1196235 219.97444667 349.09389177 233.89312863 349.04956055 247.81201172 C349.00665856 261.28476544 348.99246554 274.75716707 349.00854492 288.22998047 C349.02605788 302.93605639 349.02769766 317.64197314 349.00196099 332.34804261 C348.99922817 333.91974329 348.99650183 335.49144398 348.99378204 337.06314468 C348.99242069 337.83624256 348.99105934 338.60934043 348.98965673 339.40586551 C348.98107524 344.8247154 348.98325681 350.24349867 348.98943329 355.6623497 C348.99652172 362.27783707 348.98506144 368.89300356 348.95092544 375.50841103 C348.93394392 378.87674487 348.92721448 382.24420703 348.93706131 385.61262894 C348.98131047 403.11760137 348.95501311 419.96285819 337.24682617 434.15136719 C336.58811523 434.98152344 335.9294043 435.81167969 335.25073242 436.66699219 C326.06628281 447.60319956 315.84404078 453.2022495 301.62854099 454.47543144 C286.20462497 455.42796223 270.75309636 455.29469088 255.30719674 455.28209186 C251.14831835 455.2798041 246.98944396 455.28333395 242.83056641 455.28607178 C234.7090492 455.29049259 226.58754129 455.28956955 218.46602374 455.28665914 C211.85955626 455.28439068 205.25309137 455.2840988 198.64662361 455.28518295 C197.23035723 455.2854128 197.23035723 455.2854128 195.78547942 455.2856473 C193.86676073 455.28596706 191.94804204 455.28629127 190.02932335 455.28661989 C172.08463894 455.28946383 154.13995966 455.28620464 136.19527609 455.28081952 C120.83232993 455.27635174 105.46939133 455.27712931 90.10644531 455.28173828 C72.21962439 455.287102 54.33280795 455.28919 36.44598633 455.28612602 C34.53506188 455.2858075 32.62413742 455.28549313 30.71321297 455.28518295 C29.77326073 455.28502868 28.83330849 455.2848744 27.86487285 455.28471545 C21.27372372 455.28385574 14.68257745 455.28530136 8.09142876 455.28766251 C0.0485695 455.29048067 -7.99428001 455.28967993 -16.03713817 455.28438176 C-20.13256948 455.28177193 -24.2279846 455.28069305 -28.32341576 455.28403091 C-85.71808081 455.32650616 -85.71808081 455.32650616 -101.00317383 441.04980469 C-113.65250265 427.4901075 -118.06285416 412.92247717 -118.02732849 394.78274536 C-118.03178762 393.43970629 -118.03710386 392.09666984 -118.04319721 390.75363719 C-118.05730753 387.08231784 -118.05904184 383.41108343 -118.05860031 379.73974085 C-118.06025476 375.77220078 -118.07333319 371.80469507 -118.08479309 367.83717346 C-118.10759641 359.16935219 -118.11555909 350.50155549 -118.12061954 341.83370829 C-118.12388285 336.41373107 -118.13040926 330.99376091 -118.13762093 325.57378769 C-118.15718297 310.54589378 -118.17358876 295.51800641 -118.17649746 280.49009895 C-118.17668503 279.52928584 -118.1768726 278.56847273 -118.17706585 277.57854407 C-118.17743209 275.63100775 -118.17779579 273.68347143 -118.17815696 271.73593511 C-118.17833978 270.76926793 -118.17852259 269.80260075 -118.17871094 268.80664062 C-118.17889149 267.83878301 -118.17907204 266.87092539 -118.17925806 265.87373875 C-118.18279582 250.20899143 -118.20979509 234.5443819 -118.24720883 218.87968232 C-118.28537804 202.76871151 -118.30465558 186.6578089 -118.30495697 170.54679191 C-118.3055397 161.51253156 -118.31391201 152.4784355 -118.34295464 143.44421768 C-118.36758436 135.7476643 -118.37467401 128.05133509 -118.35970711 120.35475285 C-118.3525845 116.43530667 -118.35319153 112.51630208 -118.37611771 108.59690666 C-118.51139906 83.98078857 -117.19565187 57.8573092 -98.75317383 39.15136719 C-90.32376975 31.31270302 -81.6236562 26.02319816 -70.75317383 22.15136719 C-69.75415039 21.79220215 -68.75512695 21.43303711 -67.72583008 21.06298828 C-62.96653845 19.35528292 -58.20450789 17.65583117 -53.43579102 15.97460938 C-46.18414979 13.4119122 -39.00262603 10.73612114 -31.87817383 7.83886719 C-26.25056431 5.55833868 -20.62728183 3.28160754 -14.94067383 1.15136719 C-13.90297852 0.75949219 -12.8652832 0.36761719 -11.79614258 -0.03613281 C-7.69981369 -1.12988943 -3.97150737 -1.92242858 0 0 Z M108.24682617 165.15136719 C105.8088473 167.90037159 104.54712045 170.58771117 103.34448242 174.03808594 C102.84464844 175.44670898 102.84464844 175.44670898 102.3347168 176.88378906 C101.99633789 177.85896484 101.65795898 178.83414063 101.30932617 179.83886719 C97.50749414 190.70229091 97.50749414 190.70229091 95.33666992 195.43652344 C92.15128502 202.40791239 89.6446628 209.67747834 87.02856445 216.87841797 C86.32853063 218.8007634 85.61672962 220.71841837 84.90307617 222.63574219 C84.48864258 223.7672168 84.07420898 224.89869141 83.6472168 226.06445312 C81.91086199 229.89194095 79.90661279 233.04484277 76.37182617 235.40136719 C69.64885405 237.77418088 62.10529097 237.67386287 55.05932617 238.15136719 C53.78734375 238.23966797 52.51536133 238.32796875 51.20483398 238.41894531 C41.199303 239.08614545 31.1940658 239.50990734 21.16796875 239.72167969 C9.94352752 239.82549531 9.94352752 239.82549531 0.24682617 244.65136719 C-2.9533977 248.65164702 -3.18155892 251.01074608 -2.75317383 256.15136719 C-0.12959401 260.77682544 3.09767969 264.08096692 7.18432617 267.40136719 C7.75280273 267.87316406 8.3212793 268.34496094 8.90698242 268.83105469 C13.30901184 272.4573961 17.82136555 275.9328892 22.36523438 279.37866211 C26.86656453 282.80931052 31.19341945 286.41884025 35.49047852 290.10083008 C39.91801066 293.894024 44.4377716 297.5536755 49.00463867 301.17871094 C51.69273207 303.54367115 53.92294801 305.5867084 54.66723633 309.18237305 C54.64637056 316.56644676 52.99791148 323.47125752 51.16915894 330.58380127 C50.61221639 332.75126577 50.07041579 334.9220465 49.53222656 337.09423828 C48.13034811 342.73864669 46.69948382 348.3755564 45.26293945 354.01123047 C44.39366038 357.4305797 43.53849443 360.85321927 42.68432617 364.27636719 C42.42119629 365.28127197 42.15806641 366.28617676 41.88696289 367.3215332 C40.5525221 372.68096835 39.85709585 376.76089805 41.24682617 382.15136719 C43.0702167 384.85704345 44.32140054 386.68865437 47.24682617 388.15136719 C54.0365532 388.80113676 57.57432975 387.38513113 63.12182617 383.58886719 C63.82090088 383.13141113 64.51997559 382.67395508 65.24023438 382.20263672 C69.81873123 379.18699979 74.3087821 376.04410518 78.77026367 372.85839844 C82.70184988 370.14845652 86.7793247 367.68740654 90.86010742 365.20996094 C93.18048108 363.79953773 95.48971568 362.3790532 97.78979492 360.93652344 C98.36882568 360.57486084 98.94785645 360.21319824 99.54443359 359.84057617 C101.1546772 358.83397186 102.76330168 357.82477881 104.37182617 356.81542969 C109.49129554 353.85225856 113.27599209 352.54416372 119.24682617 353.15136719 C124.523787 355.05064143 129.0454711 358.30500629 133.63745117 361.45605469 C136.72059107 363.45917253 139.91046899 365.24078852 143.12182617 367.02636719 C148.52438806 370.04758887 153.47998695 373.40089649 158.43432617 377.12402344 C169.82694526 385.67773812 169.82694526 385.67773812 183.24682617 388.15136719 C186.06958553 386.89680747 187.70971158 385.86751997 189.55932617 383.40136719 C191.64668923 376.56999718 189.39619165 369.78025795 187.69213867 363.10058594 C187.43052948 362.0466011 187.16892029 360.99261627 186.89938354 359.9066925 C186.06452156 356.5487849 185.21868481 353.19376732 184.37182617 349.83886719 C183.5341517 346.49420442 182.6988225 343.14897439 181.86569214 339.80317688 C181.34789245 337.72654626 180.82717601 335.65063989 180.30300903 333.5756073 C174.69801153 311.21921158 174.69801153 311.21921158 177.46557617 305.73730469 C181.93638753 299.24678469 188.66572883 294.35206762 195.24682617 290.15136719 C199.20119959 287.23501679 203.07548405 284.34076082 206.52807617 280.83496094 C209.89087089 277.51565063 213.49834781 274.60151886 217.18432617 271.65136719 C228.40231953 263.88082813 228.40231953 263.88082813 233.68432617 252.27636719 C233.58697486 248.79768036 233.10790403 247.93072614 231.12182617 244.77636719 C226.36334305 240.43166521 221.71986892 239.9079097 215.42651367 239.80761719 C214.77800446 239.79381012 214.12949524 239.78000305 213.46133423 239.76577759 C212.07032298 239.73627736 210.6792293 239.71047029 209.28808594 239.68804932 C205.59400151 239.62549593 201.90097556 239.52555953 198.20776367 239.42480469 C197.45851624 239.40457245 196.7092688 239.38434021 195.93731689 239.36349487 C188.52996928 239.15171074 181.14139198 238.76740867 173.74682617 238.27636719 C172.61615723 238.20998047 171.48548828 238.14359375 170.32055664 238.07519531 C157.00726916 237.13330287 157.00726916 237.13330287 152.24682617 234.15136719 C149.16921657 230.17345055 147.33004274 226.21668739 145.66088867 221.49511719 C145.43662201 220.87092896 145.21235535 220.24674072 144.98129272 219.6036377 C144.27041523 217.62220125 143.57031228 215.637202 142.87182617 213.65136719 C141.95299556 211.0555735 141.02870851 208.46181562 140.09838867 205.87011719 C139.75284943 204.90699112 139.75284943 204.90699112 139.40032959 203.92440796 C137.35229869 198.29210144 135.00484476 192.82159938 132.60375977 187.33007812 C131.42582765 184.57069055 130.3491842 181.81185819 129.34057617 178.98730469 C129.07116211 178.23835938 128.80174805 177.48941406 128.52416992 176.71777344 C127.99361507 175.22208864 127.4759136 173.72179768 126.96948242 172.21777344 C125.10850533 167.13347716 123.29438499 164.66186355 118.24682617 162.15136719 C114.2898035 162.15136719 111.77015755 163.3897015 108.24682617 165.15136719 Z " fill="currentColor" transform="translate(424.753173828125,315.8486328125)"/>
    <path d="M0 0 C2.71875 1.6171875 2.71875 1.6171875 5.5 3.875 C6.55193261 4.70886726 7.6053801 5.54082626 8.66015625 6.37109375 C9.20559082 6.80534668 9.75102539 7.23959961 10.31298828 7.68701172 C13.11740841 9.86967039 16.02984619 11.89568984 18.9375 13.9375 C23.50369543 17.16683641 27.97071908 20.49105651 32.375 23.9375 C37.86864621 28.23491474 43.55232957 32.20390749 49.35693359 36.07006836 C52.5686228 38.23069647 55.58834666 40.44925706 58.49609375 43.0078125 C62.00626098 46.08836535 65.75909777 48.61177395 69.6875 51.125 C78.09705272 56.50911403 78.09705272 56.50911403 81 60 C81 62.5625 81 62.5625 80 65 C76.46651563 68.34978812 72.08008505 69.58929129 67.5703125 71.14453125 C66.74352997 71.43680099 65.91674744 71.72907074 65.06491089 72.03019714 C62.42056087 72.96428797 59.77312752 73.88917784 57.125 74.8125 C46.55861654 78.50719767 36.07455417 82.21740977 25.8371582 86.75708008 C13.50179165 92.16103422 13.50179165 92.16103422 7 91 C3.73391991 88.98613243 0.91725193 86.48210629 -2 84 C-4.05412542 82.38315227 -6.11363223 80.77845906 -8.1875 79.1875 C-8.73325684 78.76637939 -9.27901367 78.34525879 -9.84130859 77.91137695 C-14.49818952 74.3367859 -19.26305299 70.92709193 -24.05395508 67.53540039 C-27.94680569 64.77278475 -31.7375487 61.91676713 -35.484375 58.9609375 C-38.8341929 56.34974404 -42.22731897 53.7984622 -45.625 51.25 C-46.30578613 50.73904785 -46.98657227 50.2280957 -47.68798828 49.70166016 C-51.18400707 47.08476199 -54.69298496 44.48786668 -58.2265625 41.921875 C-58.90251465 41.43041992 -59.5784668 40.93896484 -60.27490234 40.43261719 C-61.55669345 39.50288292 -62.84074852 38.57625893 -64.12744141 37.65332031 C-70.94703411 32.70906839 -70.94703411 32.70906839 -73 30 C-73.04296875 27.39453125 -73.04296875 27.39453125 -72 25 C-70.05078125 23.69921875 -70.05078125 23.69921875 -67.3125 22.6875 C-66.22582031 22.27628906 -65.13914062 21.86507813 -64.01953125 21.44140625 C-62.67977665 20.96068897 -61.33992394 20.48024507 -60 20 C-58.33677141 19.38538004 -56.67404412 18.76940244 -55.01171875 18.15234375 C-45.00694909 14.46063334 -34.95151478 10.9214012 -24.86865234 7.44946289 C-19.28068315 5.50604243 -13.87714267 3.33998712 -8.5078125 0.84765625 C-5.41179505 -0.19881694 -3.25192146 -0.39913765 0 0 Z " fill="currentColor" transform="translate(555,265)"/>
    <path d="M0 0 C9.93444643 7.30418347 12.56946535 20.16549118 16.4375 31.3125 C17.36951719 33.99757411 18.30508396 36.68134475 19.24609375 39.36328125 C19.4737291 40.01369385 19.70136444 40.66410645 19.93589783 41.33422852 C21.74807222 46.44504578 23.81986805 51.41029013 26.046875 56.3527832 C28.15719691 62.2140077 28.03981634 67.7539967 25.4375 73.375 C19.7161349 79.53647011 13.58835329 82.19451347 5.75 84.75 C4.40421875 85.20439453 4.40421875 85.20439453 3.03125 85.66796875 C0.69092463 86.456252 -1.653263 87.23106915 -4 88 C-5.485 88.495 -5.485 88.495 -7 89 C-13.40697568 90.06782928 -16.9517083 87.60151005 -22.203125 84.0390625 C-25.56340456 81.58924975 -28.78832088 79.01146456 -32 76.37109375 C-35.93069214 73.26441389 -39.99022304 70.35484098 -44.0625 67.4375 C-53.53709125 60.64678497 -53.53709125 60.64678497 -57.5 57.5 C-61.7871932 54.09719832 -66.23881977 50.93622934 -70.6875 47.75 C-76.5474071 43.54670908 -82.33345768 39.27373014 -88 34.8125 C-88.58096436 34.35520508 -89.16192871 33.89791016 -89.76049805 33.42675781 C-91.94174383 31.69442712 -94.02864417 29.97135583 -96 28 C-95.84863281 25.98413086 -95.84863281 25.98413086 -95 24 C-92.23482015 22.65061638 -89.63691373 21.57574089 -86.75 20.5625 C-85.22390871 20.00143703 -83.69786838 19.44023546 -82.171875 18.87890625 C-81.35340088 18.58387207 -80.53492676 18.28883789 -79.69165039 17.98486328 C-76.6909605 16.88692378 -73.71076148 15.74198048 -70.73046875 14.58984375 C-59.53437646 10.26709456 -48.26375969 6.1424792 -37 2 C-36.17000488 1.69433105 -35.34000977 1.38866211 -34.48486328 1.07373047 C-32.53328086 0.35699304 -30.57928572 -0.35316666 -28.625 -1.0625 C-27.62726563 -1.42472656 -26.62953125 -1.78695312 -25.6015625 -2.16015625 C-16.33287988 -5.15229854 -8.54696453 -4.71268191 0 0 Z " fill="currentColor" transform="translate(711,217)"/>
    <path d="M0 0 C1.04178383 3.12535148 1.12325241 5.27898181 1.12025452 8.55741215 C1.12162887 9.72067243 1.12300322 10.88393271 1.12441921 12.0824433 C1.12082425 13.36646031 1.11722929 14.65047732 1.11352539 15.97340393 C1.11324551 17.34654947 1.11340809 18.71969516 1.11397648 20.09284061 C1.1142728 23.87489489 1.10832596 27.65691795 1.10140657 31.43896496 C1.09504568 35.51480442 1.09446443 39.59064499 1.0932312 43.66648865 C1.09034086 50.7333228 1.08389526 57.80014654 1.07516479 64.86697578 C1.06262178 75.09537838 1.05653639 85.32377711 1.05223143 95.55218612 C1.04515876 112.16052623 1.03435393 128.76886148 1.02050781 145.37719727 C1.01968 146.37174299 1.01885219 147.36628872 1.01799929 148.39097219 C1.01125738 156.45699738 1.00433512 164.52302241 0.99739647 172.58904743 C0.99134605 179.62943325 0.9853648 186.66981911 0.97949219 193.71020508 C0.97866406 194.7014194 0.97783593 195.69263372 0.97698271 196.71388484 C0.96328892 213.25062815 0.95353335 229.78737154 0.94658184 246.32411903 C0.94210343 256.52367748 0.93406904 266.72322139 0.92143703 276.92277306 C0.91300026 283.91659359 0.90811799 290.91041079 0.90601182 297.90423609 C0.90466899 301.93780987 0.90167479 305.97136485 0.89425278 310.0049324 C0.88747614 313.70187132 0.88537344 317.39878314 0.88688838 321.09572767 C0.88649084 323.05760632 0.88114121 325.01948206 0.87558079 326.98135287 C0.88265095 333.05950171 1.07163422 338.9788034 1.88289738 345.00687736 C2 347 2 347 1 350 C-3.5782483 340.21919682 -4.29254628 331.2831671 -4.25396729 320.53717041 C-4.25627488 319.18415495 -4.25945341 317.83114075 -4.26342177 316.47812915 C-4.27173694 312.77976726 -4.26765954 309.08150917 -4.26144934 305.383147 C-4.25691256 301.38725519 -4.26391456 297.39138086 -4.26940918 293.39549255 C-4.27829077 285.57641422 -4.27638696 277.75737433 -4.2705839 269.9382945 C-4.26606385 263.58462019 -4.26545599 257.23095664 -4.26763153 250.87728119 C-4.267938 249.97240109 -4.26824446 249.06752099 -4.26856022 248.13522027 C-4.26919967 246.29692373 -4.2698481 244.4586272 -4.2705054 242.62033066 C-4.27620474 225.39427893 -4.26965633 208.16824851 -4.25890467 190.94220027 C-4.24996345 176.15888458 -4.25152666 161.37560029 -4.26074219 146.59228516 C-4.27144137 129.42091344 -4.27566183 112.24956038 -4.26951766 95.0781858 C-4.26888056 93.24794245 -4.26825182 91.4176991 -4.26763153 89.58745575 C-4.26732298 88.68695014 -4.26701443 87.78644453 -4.26669653 86.85865088 C-4.26496898 80.5099726 -4.26788585 74.16130615 -4.27259064 67.8126297 C-4.27819528 60.07986017 -4.27669155 52.34713125 -4.26602915 44.61436638 C-4.26076776 40.66844245 -4.25872373 36.72258628 -4.26532745 32.77666283 C-4.27127897 29.16592088 -4.26802507 25.55530963 -4.25737235 21.94457957 C-4.25407369 20.01707166 -4.26061627 18.0895547 -4.26748681 16.16205621 C-4.26227132 15.0185809 -4.25705582 13.8751056 -4.25168228 12.69697952 C-4.25135758 11.71040839 -4.25103287 10.72383727 -4.25069833 9.70737004 C-3.87495885 5.64964136 -2.88966594 2.88966594 0 0 Z " fill="currentColor" transform="translate(311,390)"/>
    <path d="M0 0 C1.8125 0.0625 1.8125 0.0625 4 1 C7.44834233 7.0750156 7.42394747 12.60306909 7.38095093 19.47357178 C7.3856309 20.62335329 7.39031087 21.77313481 7.39513266 22.95775819 C7.40500532 26.13606792 7.40148321 29.31403201 7.39217401 32.49233294 C7.38537379 35.92532694 7.39586976 39.35827496 7.40411377 42.79125977 C7.41744466 49.51241035 7.41457576 56.23346035 7.40587585 62.95461485 C7.39909491 68.42013258 7.39818436 73.88562215 7.4014473 79.35114288 C7.401907 80.12967037 7.40236669 80.90819786 7.40284032 81.71031709 C7.40379953 83.29203732 7.40477217 84.87375753 7.4057581 86.45547774 C7.41431069 101.28437464 7.4044811 116.11321589 7.388357 130.94210365 C7.37496449 143.65186004 7.37727334 156.36153418 7.39111328 169.07128906 C7.40718964 183.84168166 7.41347562 198.61202542 7.40427649 213.38242555 C7.40332089 214.95948171 7.40237777 216.53653788 7.4014473 218.11359406 C7.40098447 218.8894604 7.40052164 219.66532675 7.40004479 220.4647042 C7.39746028 225.91837342 7.40181449 231.37201156 7.40888596 236.82567596 C7.41732449 243.47980948 7.41497201 250.1338369 7.39904372 256.78795835 C7.39119078 260.17976634 7.38964869 263.57125252 7.39799118 266.96308136 C7.40621812 270.64839346 7.39587021 274.33321274 7.38095093 278.01849365 C7.38764309 279.07892498 7.39433526 280.1393563 7.40123022 281.23192191 C7.34647062 288.23084154 6.15536497 294.34462809 4 301 C3.01 301 2.02 301 1 301 C1 301.66 1 302.32 1 303 C0.34 302.67 -0.32 302.34 -1 302 C-0.71125 301.38125 -0.4225 300.7625 -0.125 300.125 C2.79850915 292.00414126 3.29086949 283.97560141 3.25396729 275.41122437 C3.25708727 274.28534774 3.26020725 273.15947112 3.26342177 271.99947703 C3.27136203 268.24878337 3.26509361 264.49825329 3.25878906 260.74755859 C3.26150066 258.04973378 3.26499052 255.35192003 3.26940918 252.65409851 C3.27827828 246.10082234 3.27639245 239.54759211 3.2705839 232.99431418 C3.26605838 227.66710026 3.26545835 222.33989916 3.26763153 217.01268387 C3.267938 216.25312421 3.26824446 215.49356455 3.26856022 214.71098793 C3.26919969 213.16775412 3.26984812 211.62452031 3.2705054 210.0812865 C3.27620121 195.62874757 3.26966216 181.17623405 3.25890467 166.72369929 C3.24996622 154.33141181 3.25152506 141.9391618 3.26074219 129.546875 C3.27145182 115.14126616 3.27565576 100.73567955 3.26951766 86.33006728 C3.26888059 84.79327306 3.26825184 83.25647883 3.26763153 81.7196846 C3.2671687 80.58560248 3.2671687 80.58560248 3.26669653 79.4286096 C3.26497194 74.1087565 3.26787952 68.78891753 3.27259064 63.46906662 C3.27820701 56.98475526 3.27666696 50.5004923 3.26602915 44.01618646 C3.26078317 40.70985914 3.25977917 37.40362886 3.26532745 34.09729958 C3.27079269 30.50972208 3.26393661 26.9223714 3.25396729 23.33480835 C3.25842873 22.2949215 3.26289017 21.25503464 3.26748681 20.18363607 C3.23643526 14.42225868 2.63359208 9.52774558 1 4 C0.66098299 2.66810047 0.32620945 1.33509411 0 0 Z " fill="currentColor" transform="translate(766,435)"/>
    <path d="M0 0 C0.6343192 0.21185857 1.2686384 0.42371714 1.9221794 0.64199567 C9.64078028 3.0072525 16.73204092 3.4323695 24.76911926 3.40545654 C26.13176821 3.41162455 27.49441177 3.41909317 28.85704726 3.42773652 C32.57436393 3.44758243 36.29148943 3.4490843 40.00885022 3.4473989 C44.03074336 3.44883987 48.05256258 3.46751676 52.07441711 3.48399353 C59.95242063 3.51357184 67.83037635 3.52738478 75.7084277 3.53589597 C84.92656807 3.54648081 94.14464239 3.57304393 103.3627462 3.60024002 C119.86103698 3.64839361 136.35932673 3.68248406 152.85766602 3.70849609 C168.76492636 3.73359177 184.67212933 3.76785266 200.5793457 3.81298828 C202.04144372 3.81713462 202.04144372 3.81713462 203.53307907 3.82136473 C204.50632185 3.82412709 205.47956464 3.82688945 206.48229963 3.82973552 C208.44320316 3.83529932 210.40410671 3.84085964 212.36501026 3.84641647 C213.33272362 3.84916031 214.30043697 3.85190415 215.29747497 3.85473113 C230.57021397 3.89765144 245.84297375 3.93206462 261.11573574 3.96563159 C266.59585266 3.97776955 272.07596524 3.99106359 277.55607714 4.00527947 C316.04934794 4.10471191 354.51956096 4.18414526 393 3 C393 3.66 393 4.32 393 5 C389.6989721 6.10034263 387.26919561 6.12647568 383.79224491 6.12863445 C381.82975067 6.13347112 381.82975067 6.13347112 379.82761008 6.1384055 C378.36693059 6.1369342 376.90625119 6.13536647 375.4455719 6.13371277 C373.90060954 6.13557992 372.35564766 6.13788023 370.81068653 6.14057809 C366.55363482 6.14671486 362.29660269 6.14656028 358.03954756 6.14538372 C353.45241276 6.14518017 348.86528432 6.1506942 344.27815247 6.15544128 C335.28482523 6.16375978 326.29150455 6.16649671 317.29817379 6.16705366 C309.98618023 6.16752846 302.67418884 6.16958142 295.36219597 6.17275429 C274.63379659 6.18156582 253.90540239 6.18617314 233.17700113 6.18542381 C232.05873968 6.18538386 230.94047823 6.1853439 229.78833008 6.18530273 C228.66870315 6.18526185 227.54907623 6.18522097 226.39552122 6.18517885 C208.26520308 6.18477273 190.13490574 6.19433255 172.00459362 6.2084411 C153.39087495 6.22281148 134.77716643 6.22971085 116.16344208 6.22884732 C105.71252975 6.22851548 95.26163921 6.23125688 84.81073189 6.24202538 C75.90835674 6.25113929 67.00601323 6.25329847 58.10363544 6.24651595 C53.56348342 6.24325464 49.02339207 6.24317992 44.48324585 6.2518692 C40.32109941 6.25975281 36.15906157 6.25828379 31.99691772 6.24958507 C30.49680333 6.24805412 28.99668076 6.24985087 27.49657602 6.25544515 C18.81660824 6.28565244 10.52377859 5.76305526 2 4 C2 3.34 2 2.68 2 2 C1.34 2 0.68 2 0 2 C0 1.34 0 0.68 0 0 Z " fill="currentColor" transform="translate(339,763)"/>
    <path d="M0 0 C1.04203748 3.12611244 1.1232516 5.28090272 1.12025452 8.56020546 C1.12162887 9.72408244 1.12300322 10.88795942 1.12441921 12.08710539 C1.12082425 13.37180452 1.11722929 14.65650365 1.11352539 15.98013306 C1.11324551 17.35399129 1.11340808 18.72784967 1.11397648 20.10170782 C1.1142728 23.8856927 1.10832599 27.66964638 1.10140657 31.45362401 C1.09504572 35.53148935 1.09446444 39.60935581 1.0932312 43.68722534 C1.09034092 50.75733568 1.08389546 57.82743562 1.07516479 64.89754105 C1.06262272 75.1295921 1.05653665 85.36163929 1.05223143 95.59369676 C1.04515894 112.20651053 1.034354 128.81931945 1.02050781 145.43212891 C1.01926609 146.92434096 1.01926609 146.92434096 1.01799929 148.44669871 C1.01125692 156.51544871 1.00433425 164.58419855 0.99739647 172.65294838 C0.99134579 179.69718036 0.98536466 186.7414124 0.97949219 193.78564453 C0.97866406 194.77742426 0.97783593 195.76920398 0.97698271 196.79103763 C0.96329199 213.33342618 0.95353487 229.87581481 0.94658184 246.41820753 C0.94210201 256.62237528 0.93406468 266.82652853 0.92143703 277.03068952 C0.91300439 284.0263717 0.90811894 291.02205054 0.90601182 298.01773746 C0.90466814 302.05321259 0.90166842 306.08866896 0.89425278 310.12413788 C0.88748405 313.82164126 0.88537181 317.51911757 0.88688838 321.21662657 C0.88649016 323.18123268 0.88113618 325.14583588 0.87558079 327.11043417 C0.8830194 333.49455399 1.14334023 339.6717916 2 346 C-3.96772665 339.77280697 -2.14347948 328.43893285 -2.13371277 320.44741821 C-2.13558299 319.0725048 -2.13788454 317.69759192 -2.14057809 316.32267988 C-2.1466756 312.55928727 -2.14656494 308.79591695 -2.14538372 305.03252053 C-2.14517921 300.9685051 -2.15070298 296.90449674 -2.15544128 292.84048462 C-2.16373537 284.88659587 -2.1664955 276.93271454 -2.16705366 268.97882183 C-2.16752908 262.51735776 -2.16958508 256.05589613 -2.17275429 249.59443283 C-2.18155472 231.27976868 -2.18617421 212.96511038 -2.18542381 194.65044411 C-2.18538386 193.66381025 -2.1853439 192.67717639 -2.18530273 191.66064453 C-2.18526185 190.67280906 -2.18522097 189.68497359 -2.18517885 188.66720371 C-2.18477177 172.63206777 -2.19435863 156.59695523 -2.2084411 140.56182607 C-2.222783 124.10180084 -2.22971261 107.64178706 -2.22884732 91.18175542 C-2.22851477 81.93848835 -2.23128791 72.69524586 -2.24202538 63.45198441 C-2.25110128 55.58882083 -2.25332945 47.72569302 -2.24651595 39.86252649 C-2.24323695 35.84811985 -2.24324359 31.83378194 -2.2518692 27.81938171 C-2.25967382 24.14954847 -2.25836544 20.47983916 -2.24958507 16.81000917 C-2.24729949 14.84344914 -2.25492549 12.87688544 -2.26282471 10.91033995 C-2.25822592 9.75480411 -2.25362712 8.59926828 -2.24888897 7.4087162 C-2.24910634 6.40527503 -2.24932371 5.40183385 -2.24954766 4.36798537 C-2 2 -2 2 0 0 Z " fill="currentColor" transform="translate(311,390)"/>
    <path d="M0 0 C0 0.99 0 1.98 0 3 C-4.61383379 4.76511477 -8.89356021 5.41297208 -13.79014587 5.61691284 C-15.00584712 5.67333633 -15.00584712 5.67333633 -16.246108 5.73089969 C-29.4667955 6.26320432 -42.7104743 6.14151552 -55.93962944 6.13072467 C-60.09850782 6.12843691 -64.25738221 6.13196677 -68.41625977 6.13470459 C-76.53777697 6.1391254 -84.65928488 6.13820236 -92.78080244 6.13529195 C-99.38726991 6.13302349 -105.9937348 6.13273162 -112.60020256 6.13381577 C-114.01646894 6.13404561 -114.01646894 6.13404561 -115.46134676 6.13428011 C-117.38006545 6.13459987 -119.29878414 6.13492408 -121.21750282 6.1352527 C-139.16218723 6.13809664 -157.10686651 6.13483745 -175.05155008 6.12945233 C-190.41449624 6.12498456 -205.77743484 6.12576212 -221.14038086 6.13037109 C-239.02720178 6.13573481 -256.91401823 6.13782282 -274.80083984 6.13475883 C-276.7117643 6.13444032 -278.62268875 6.13412594 -280.5336132 6.13381577 C-281.47356544 6.13366149 -282.41351768 6.13350721 -283.38195332 6.13334826 C-289.97310245 6.13248855 -296.56424872 6.13393417 -303.15539742 6.13629532 C-311.19825667 6.13911348 -319.24110619 6.13831274 -327.28396434 6.13301457 C-331.37939565 6.13040474 -335.47481077 6.12932586 -339.57024193 6.13266373 C-382.36242987 6.16422739 -382.36242987 6.16422739 -394 3 C-394 2.67 -394 2.34 -394 2 C-393.38821087 2.07079236 -392.77642174 2.14158472 -392.14609355 2.2145223 C-383.85687291 3.07937116 -375.61182673 3.13755695 -367.28889465 3.12025452 C-365.71610153 3.12069127 -364.14330848 3.12156809 -362.57051581 3.12284368 C-358.27416277 3.12506821 -353.9778349 3.12109547 -349.68148506 3.11606562 C-345.03882659 3.11173184 -340.39616945 3.11320962 -335.75350952 3.1139679 C-327.71824116 3.11449128 -319.68298093 3.11136388 -311.64771461 3.10573006 C-300.03018507 3.09758989 -288.41265944 3.09499726 -276.79512735 3.09374207 C-257.94471483 3.0915555 -239.09430665 3.08490614 -220.24389648 3.07543945 C-201.93660504 3.06625511 -183.62931477 3.05917927 -165.32202148 3.05493164 C-164.19284012 3.05466892 -163.06365875 3.05440619 -161.90025977 3.05413551 C-156.23527375 3.05283044 -150.57028772 3.05156674 -144.90530169 3.05032361 C-97.93686479 3.03996331 -50.96843262 3.02235575 -4 3 C-4 2.34 -4 1.68 -4 1 C-2 0 -2 0 0 0 Z " fill="currentColor" transform="translate(736,765)"/>
    <path d="M0 0 C0 0.99 0 1.98 0 3 C109.23 3 218.46 3 331 3 C331 3.33 331 3.66 331 4 C288.10223658 4.02286767 245.20447387 4.04049889 202.30670557 4.05106533 C197.2471136 4.0523161 192.18752164 4.05361042 187.12792969 4.05493164 C186.12061713 4.05519395 185.11330457 4.05545626 184.07546739 4.05572652 C167.7456041 4.06008287 151.41574431 4.06797022 135.0858831 4.0771528 C118.34134991 4.08649032 101.59681856 4.09205582 84.85228288 4.09408849 C74.51240739 4.09546352 64.17254181 4.09981299 53.83266936 4.10791647 C46.7510395 4.11318513 39.66941479 4.11480402 32.58778311 4.11350138 C28.4964902 4.11285819 24.40521465 4.11387338 20.31392479 4.11920547 C16.57348937 4.12404496 12.83308312 4.124335 9.09264641 4.12089889 C7.08792995 4.1202713 5.08321386 4.12460812 3.0785023 4.12908131 C1.90061589 4.12709026 0.72272949 4.12509921 -0.49085045 4.12304783 C-1.51381702 4.12342755 -2.53678359 4.12380727 -3.59074914 4.1241985 C-6 4 -6 4 -8 3 C-8 2.34 -8 1.68 -8 1 C-5.10765685 0.17361624 -3.11257569 0 0 0 Z " fill="currentColor" transform="translate(413,414)"/>
    <path d="M0 0 C1.98 0.495 1.98 0.495 4 1 C5.09226725 7.17739846 5.14004881 13.21044736 5.12698364 19.47357178 C5.12854363 20.62335329 5.13010362 21.77313481 5.13171089 22.95775819 C5.13500167 26.1359629 5.13382764 29.3141292 5.13072467 32.49233294 C5.12845794 35.92531059 5.13195659 39.35828313 5.13470459 42.79125977 C5.1391482 49.51238171 5.13819191 56.23349247 5.13529195 62.95461485 C5.13303164 68.42012512 5.13272812 73.88563227 5.13381577 79.35114288 C5.133969 80.12967037 5.13412223 80.90819786 5.13428011 81.71031709 C5.13459984 83.29203731 5.13492406 84.87375753 5.1352527 86.45547774 C5.13810356 101.28435545 5.13482703 116.11322697 5.12945233 130.94210365 C5.12498817 143.65183523 5.12575779 156.36155766 5.13037109 169.07128906 C5.13572988 183.84166942 5.1378252 198.61204435 5.13475883 213.38242555 C5.1344403 214.95948172 5.13412592 216.53653788 5.13381577 218.11359406 C5.13366149 218.8894604 5.13350721 219.66532675 5.13334826 220.4647042 C5.13248676 225.91836279 5.13393816 231.37201791 5.13629532 236.82567596 C5.13910815 243.47977447 5.13832399 250.13386119 5.13301457 256.78795835 C5.130397 260.17967717 5.12988298 263.57136023 5.13266373 266.96308136 C5.13540593 270.6482382 5.13195656 274.33334028 5.12698364 278.01849365 C5.12921436 279.07892498 5.13144509 280.1393563 5.13374341 281.23192191 C5.11642642 287.87186413 4.71264216 294.39847497 4 301 C3.01 301 2.02 301 1 301 C1 301.66 1 302.32 1 303 C0.34 302.67 -0.32 302.34 -1 302 C-0.71125 301.38125 -0.4225 300.7625 -0.125 300.125 C2.79850915 292.00414126 3.29086949 283.97560141 3.25396729 275.41122437 C3.25708727 274.28534774 3.26020725 273.15947112 3.26342177 271.99947703 C3.27136203 268.24878337 3.26509361 264.49825329 3.25878906 260.74755859 C3.26150066 258.04973378 3.26499052 255.35192003 3.26940918 252.65409851 C3.27827828 246.10082234 3.27639245 239.54759211 3.2705839 232.99431418 C3.26605838 227.66710026 3.26545835 222.33989916 3.26763153 217.01268387 C3.267938 216.25312421 3.26824446 215.49356455 3.26856022 214.71098793 C3.26919969 213.16775412 3.26984812 211.62452031 3.2705054 210.0812865 C3.27620121 195.62874757 3.26966216 181.17623405 3.25890467 166.72369929 C3.24996622 154.33141181 3.25152506 141.9391618 3.26074219 129.546875 C3.27145182 115.14126616 3.27565576 100.73567955 3.26951766 86.33006728 C3.26888059 84.79327306 3.26825184 83.25647883 3.26763153 81.7196846 C3.2671687 80.58560248 3.2671687 80.58560248 3.26669653 79.4286096 C3.26497194 74.1087565 3.26787952 68.78891753 3.27259064 63.46906662 C3.27820701 56.98475526 3.27666696 50.5004923 3.26602915 44.01618646 C3.26078317 40.70985914 3.25977917 37.40362886 3.26532745 34.09729958 C3.27079269 30.50972208 3.26393661 26.9223714 3.25396729 23.33480835 C3.25842873 22.2949215 3.26289017 21.25503464 3.26748681 20.18363607 C3.23643526 14.42225868 2.63359208 9.52774558 1 4 C0.66098299 2.66810047 0.32620945 1.33509411 0 0 Z " fill="currentColor" transform="translate(766,435)"/>
    <path d="M0 0 C5.01123298 1.28493153 8.68998818 3.64405066 12.88671875 6.54296875 C15.19873526 8.1370208 17.58004161 9.57649507 20 11 C20.99 11.66 21.98 12.32 23 13 C23 13.66 23 14.32 23 15 C23.70125 15.226875 24.4025 15.45375 25.125 15.6875 C27.98238924 16.99196031 30.09550731 18.57084841 32.4453125 20.640625 C33.4955624 21.55893396 34.57542356 22.44428052 35.6796875 23.296875 C39.8102699 26.49857045 39.8102699 26.49857045 40.875 29.3125 C40.91625 29.869375 40.9575 30.42625 41 31 C37.6715804 29.991388 35.40747311 28.60298806 32.86328125 26.30859375 C28.85608738 22.80709084 24.59284581 19.75554328 20.25 16.6875 C6.33334045 6.7474367 6.33334045 6.7474367 0 1 C0 0.67 0 0.34 0 0 Z " fill="currentColor" transform="translate(616,245)"/>
    <path d="M0 0 C0.66 0 1.32 0 2 0 C0.1057869 10.65494871 -8.34155311 19.93339083 -17 26 C-20.23456103 27.70190566 -23.42870848 29.18131043 -27 30 C-27.99 29.67 -28.98 29.34 -30 29 C-29.45472656 28.64808594 -28.90945313 28.29617188 -28.34765625 27.93359375 C-18.04460538 21.18817754 -10.42156465 14.88613544 -3.75 4.5 C-2.88375 3.2625 -2.88375 3.2625 -2 2 C-1.34 2 -0.68 2 0 2 C0 1.34 0 0.68 0 0 Z " fill="currentColor" transform="translate(767,736)"/>
    <path d="M0 0 C0.66 0 1.32 0 2 0 C3.34449421 4.05438151 4.14201692 7.71413212 4 12 C1.72916328 16.14128907 -1.4396348 18.94539694 -5 22 C-5.92683594 22.80695312 -6.85367188 23.61390625 -7.80859375 24.4453125 C-12.69324929 28.5508621 -17.7465673 32.38096859 -23 36 C-23.33 34.68 -23.66 33.36 -24 32 C-23.5059668 31.5968457 -23.01193359 31.19369141 -22.50292969 30.77832031 C-20.25010731 28.93779297 -18.00003624 27.09393214 -15.75 25.25 C-14.97269531 24.61578125 -14.19539062 23.9815625 -13.39453125 23.328125 C-12.64042969 22.709375 -11.88632812 22.090625 -11.109375 21.453125 C-10.41811523 20.88754883 -9.72685547 20.32197266 -9.01464844 19.73925781 C-6.91963581 17.98477738 -6.91963581 17.98477738 -4.86816406 15.78417969 C-3 14 -3 14 -1 14 C-0.06380187 10.84493858 0.1057123 8.03413498 0.0625 4.75 C0.05347656 3.85796875 0.04445313 2.9659375 0.03515625 2.046875 C0.02355469 1.37140625 0.01195312 0.6959375 0 0 Z " fill="currentColor" transform="translate(657,562)"/>
    <path d="M0 0 C0.66 0.33 1.32 0.66 2 1 C0.29171079 3.10633718 -0.52148416 3.93801608 -3.26171875 4.29296875 C-4.06222656 4.25816406 -4.86273438 4.22335937 -5.6875 4.1875 C-6.49574219 4.16042969 -7.30398438 4.13335938 -8.13671875 4.10546875 C-8.75160156 4.07066406 -9.36648438 4.03585937 -10 4 C-10 4.66 -10 5.32 -10 6 C-10.70608398 5.99476318 -11.41216797 5.98952637 -12.13964844 5.98413086 C-15.34308988 5.96332587 -18.5465171 5.95032859 -21.75 5.9375 C-22.86117188 5.92912109 -23.97234375 5.92074219 -25.1171875 5.91210938 C-26.18710937 5.90888672 -27.25703125 5.90566406 -28.359375 5.90234375 C-29.34389648 5.89710693 -30.32841797 5.89187012 -31.34277344 5.88647461 C-33.74096368 5.98893312 -35.69676328 6.38530981 -38 7 C-39.92040756 6.91685386 -41.83873231 6.76727868 -43.75 6.5625 C-44.73484375 6.46066406 -45.7196875 6.35882812 -46.734375 6.25390625 C-47.48203125 6.17011719 -48.2296875 6.08632813 -49 6 C-48.67 5.34 -48.34 4.68 -48 4 C-46.10217285 3.65232849 -46.10217285 3.65232849 -43.58789062 3.51342773 C-42.65021851 3.45674423 -41.71254639 3.40006073 -40.74645996 3.34165955 C-39.21680603 3.26341698 -39.21680603 3.26341698 -37.65625 3.18359375 C-36.61682251 3.12220718 -35.57739502 3.06082062 -34.50646973 2.99757385 C-31.1714306 2.80179911 -27.83585036 2.61888477 -24.5 2.4375 C-21.16428539 2.25085141 -17.82878165 2.061469 -14.49353027 1.86671448 C-12.41382574 1.74580541 -10.33382165 1.62993071 -8.25354004 1.51939392 C-6.84703186 1.43909691 -6.84703186 1.43909691 -5.41210938 1.35717773 C-4.16753967 1.28961525 -4.16753967 1.28961525 -2.89782715 1.22068787 C-0.99104353 1.19794311 -0.99104353 1.19794311 0 0 Z " fill="currentColor" transform="translate(499,548)"/>
    <path d="M0 0 C-0.55670281 3.52198766 -1.5791595 4.89292074 -4.41796875 7.01171875 C-9.0660552 10.30778541 -13.91873793 12.08888452 -19.3125 13.8125 C-20.20517578 14.11091797 -21.09785156 14.40933594 -22.01757812 14.71679688 C-24.34097256 15.49126169 -26.6691367 16.24840418 -29 17 C-29.99 17.33 -30.98 17.66 -32 18 C-34.33299825 18.03954234 -36.66708189 18.04401732 -39 18 C-39 17.67 -39 17.34 -39 17 C-37.10454608 16.51933465 -35.20861961 16.04053257 -33.3125 15.5625 C-32.25675781 15.29566406 -31.20101562 15.02882813 -30.11328125 14.75390625 C-27.4171683 14.10102068 -24.7242424 13.52058807 -22 13 C-22.33 12.01 -22.66 11.02 -23 10 C-22.05898438 9.69707031 -21.11796875 9.39414062 -20.1484375 9.08203125 C-14.13113724 7.05757723 -5.34020229 0 0 0 Z " fill="currentColor" transform="translate(736,288)"/>
    <path d="M0 0 C5.82994331 -0.54999465 9.56018547 0.46974833 14.44140625 3.53125 C17.89569038 6.86423866 18.89637605 10.24381138 20.3125 14.75 C20.57611328 15.54277344 20.83972656 16.33554687 21.11132812 17.15234375 C21.75556271 19.09676086 22.37980822 21.04778119 23 23 C20.67578125 22.89453125 20.67578125 22.89453125 18 22 C16.41796875 19.19921875 16.41796875 19.19921875 15.1875 15.6875 C14.76855469 14.53636719 14.34960938 13.38523437 13.91796875 12.19921875 C13 9 13 9 13 5 C8.13948404 2.40772482 3.34728867 2.81310447 -2 3 C-1.34 2.01 -0.68 1.02 0 0 Z " fill="currentColor" transform="translate(536,475)"/>
    <path d="M0 0 C0.66 0.66 1.32 1.32 2 2 C-0.94735549 6.19431359 -3.46702238 7.75469333 -8 10 C-10.67268452 11.65913358 -13.2730223 13.42007135 -15.875 15.1875 C-16.56335938 15.65091797 -17.25171875 16.11433594 -17.9609375 16.59179688 C-19.6427648 17.72469443 -21.32168485 18.86190589 -23 20 C-23.66 19.67 -24.32 19.34 -25 19 C-23.80668741 15.42006223 -22.8781058 14.94540914 -19.8125 12.875 C-18.92433594 12.27300781 -18.03617187 11.67101562 -17.12109375 11.05078125 C-11.44373573 7.32035201 -5.73356027 3.64337187 0 0 Z " fill="currentColor" transform="translate(517,679)"/>
    <path d="M0 0 C0.495 0.99 0.495 0.99 1 2 C-1.76886123 3.00577013 -4.53984104 4.00480147 -7.3125 5 C-8.49102539 5.42925781 -8.49102539 5.42925781 -9.69335938 5.8671875 C-10.45068359 6.13789063 -11.20800781 6.40859375 -11.98828125 6.6875 C-12.68477783 6.93886719 -13.38127441 7.19023437 -14.09887695 7.44921875 C-16 8 -16 8 -19 8 C-19.04125 8.61875 -19.0825 9.2375 -19.125 9.875 C-20 12 -20 12 -22.625 13.25 C-26.32334274 14.07185394 -29.23205365 14.49765329 -33 14 C-35 11.625 -35 11.625 -36 9 C-35.67 8.34 -35.34 7.68 -35 7 C-34.34 7.66 -33.68 8.32 -33 9 C-28.06536846 9.37932856 -24.26095821 8.69049249 -19.62890625 7.03125 C-18.47841797 6.62519531 -17.32792969 6.21914063 -16.14257812 5.80078125 C-14.96115234 5.37152344 -13.77972656 4.94226563 -12.5625 4.5 C-11.35400391 4.07074219 -10.14550781 3.64148438 -8.90039062 3.19921875 C-5.92995771 2.14254301 -2.96351022 1.07590587 0 0 Z " fill="currentColor" transform="translate(595,342)"/>
    <path d="M0 0 C-1 3 -1 3 -3.36083984 4.18261719 C-4.38387207 4.55032227 -5.4069043 4.91802734 -6.4609375 5.296875 C-7.57210938 5.69777344 -8.68328125 6.09867187 -9.828125 6.51171875 C-10.99859375 6.92035156 -12.1690625 7.32898438 -13.375 7.75 C-14.53773438 8.17410156 -15.70046875 8.59820312 -16.8984375 9.03515625 C-25.60915179 12.13028274 -25.60915179 12.13028274 -29 11 C-24.7893691 6.58886286 -20.29900453 4.86787077 -14.6875 2.875 C-13.94048828 2.59785156 -13.19347656 2.32070313 -12.42382812 2.03515625 C-8.13182897 0.50526015 -4.6259554 -0.33830516 0 0 Z " fill="currentColor" transform="translate(515,280)"/>
    <path d="M0 0 C0.99 0 1.98 0 3 0 C1.67429579 8.54730344 -0.51068141 16.72241148 -3 25 C-4.54296875 23.8203125 -4.54296875 23.8203125 -6 22 C-5.92578125 19.6171875 -5.92578125 19.6171875 -5.3125 16.875 C-5.10238281 15.90433594 -4.89226562 14.93367187 -4.67578125 13.93359375 C-4.34126953 12.48146484 -4.34126953 12.48146484 -4 11 C-3.82855469 10.12472656 -3.65710938 9.24945312 -3.48046875 8.34765625 C-2.26859818 2.26859818 -2.26859818 2.26859818 0 0 Z " fill="currentColor" transform="translate(473,647)"/>
    <path d="M0 0 C0 0.99 0 1.98 0 3 C19.14 3 38.28 3 58 3 C58 3.33 58 3.66 58 4 C49.68998125 4.02314315 41.37997592 4.04092518 33.06993294 4.05181217 C29.2114867 4.05703667 25.35306247 4.06412649 21.49462891 4.07543945 C17.7728847 4.08628368 14.0511617 4.09228011 10.32940292 4.09487724 C8.90759828 4.09672871 7.48579483 4.10034403 6.06399918 4.10573006 C4.0766945 4.11296072 2.08936861 4.11340823 0.10205078 4.11352539 C-1.59671707 4.11685631 -1.59671707 4.11685631 -3.32980347 4.12025452 C-6 4 -6 4 -8 3 C-8 2.34 -8 1.68 -8 1 C-5.10765685 0.17361624 -3.11257569 0 0 0 Z " fill="currentColor" transform="translate(413,414)"/>
    <path d="M0 0 C0.66 0.33 1.32 0.66 2 1 C1.69964844 2.14597656 1.39929688 3.29195312 1.08984375 4.47265625 C0.70505297 6.00243424 0.32097621 7.53239195 -0.0625 9.0625 C-0.26166016 9.81466797 -0.46082031 10.56683594 -0.66601562 11.34179688 C-2.21589743 17.62289684 -2.45504655 23.24158908 1 29 C0.01 29 -0.98 29 -2 29 C-2.66 27.35 -3.32 25.7 -4 24 C-4.66 24 -5.32 24 -6 24 C-7.125 18.25 -7.125 18.25 -6 16 C-5.34 16 -4.68 16 -4 16 C-3.94392578 15.14728516 -3.94392578 15.14728516 -3.88671875 14.27734375 C-3.43021378 8.91564807 -2.36510918 4.8330492 0 0 Z " fill="currentColor" transform="translate(468,673)"/>
    <path d="M0 0 C2.3125 0.25 2.3125 0.25 5 1 C5.4125 1.639375 5.825 2.27875 6.25 2.9375 C8.71989789 5.84845109 10.99328016 6.01847132 14.6875 6.75 C16.45673828 7.11351562 16.45673828 7.11351562 18.26171875 7.484375 C19.16535156 7.65453125 20.06898438 7.8246875 21 8 C21 8.66 21 9.32 21 10 C15.02752482 11.39781334 10.51260958 10.7936242 5 8 C2.31710514 5.31710514 1.19414407 3.58243222 0 0 Z " fill="currentColor" transform="translate(572,543)"/>
    <path d="M0 0 C0.66 0 1.32 0 2 0 C2.350625 0.78375 2.70125 1.5675 3.0625 2.375 C5.59729569 5.80923933 7.5602246 6.08052774 11.6484375 6.79296875 C16.0462497 7.18015155 19.85172144 6.38275952 24 5 C23.04239706 7.61164437 22.30921331 8.8032279 19.9375 10.3125 C14.49800717 11.58557279 8.80614131 10.94212424 4 8 C0 2.66666667 0 2.66666667 0 0 Z " fill="currentColor" transform="translate(462,697)"/>
    <path d="M0 0 C4.19525898 2.15756176 7.85280647 4.71452246 10 9 C10.67629702 13.8100676 10.31157224 18.334243 9 23 C8.01 22.67 7.02 22.34 6 22 C6.05220703 20.75283203 6.05220703 20.75283203 6.10546875 19.48046875 C6.14607422 17.85044922 6.14607422 17.85044922 6.1875 16.1875 C6.22230469 15.10855469 6.25710938 14.02960937 6.29296875 12.91796875 C6.27159278 10.00970254 6.27159278 10.00970254 4.59375 8.2734375 C4.0678125 7.85320313 3.541875 7.43296875 3 7 C0 2.44444444 0 2.44444444 0 0 Z " fill="currentColor" transform="translate(470,614)"/>
    <path d="M0 0 C-18.34042553 7.76595745 -18.34042553 7.76595745 -27 10 C-26.6875 8.1015625 -26.6875 8.1015625 -26 6 C-21.53039872 3.57896597 -17.10068889 2.47194947 -12.140625 1.4765625 C-9.77159267 0.99589577 -9.77159267 0.99589577 -6.6875 -0.1875 C-3.80924224 -1.05767095 -2.78618635 -0.83763812 0 0 Z " fill="currentColor" transform="translate(441,404)"/>
    <path d="M0 0 C0.66 0.33 1.32 0.66 2 1 C0.5489926 2.83913695 -0.91101659 4.6711753 -2.375 6.5 C-3.18710937 7.5209375 -3.99921875 8.541875 -4.8359375 9.59375 C-5.90714844 10.78484375 -5.90714844 10.78484375 -7 12 C-7.66 12 -8.32 12 -9 12 C-9.226875 12.61875 -9.45375 13.2375 -9.6875 13.875 C-11.37929835 16.61410209 -12.99244161 17.05024472 -16 18 C-13.81863628 11.63768916 -9.99538157 7.75957254 -4.75 3.6875 C-3.41195313 2.64142578 -3.41195313 2.64142578 -2.046875 1.57421875 C-1.37140625 1.05472656 -0.6959375 0.53523438 0 0 Z " fill="currentColor" transform="translate(336,347)"/>
    <path d="M0 0 C0 0.99 0 1.98 0 3 C-5.63491434 5.3983656 -10.85932877 5.25750942 -16.8671875 5.1953125 C-17.90191193 5.1924826 -18.93663635 5.18965271 -20.00271606 5.18673706 C-23.29359714 5.17558048 -26.58420178 5.15048397 -29.875 5.125 C-32.11197522 5.11496437 -34.34895473 5.10583953 -36.5859375 5.09765625 C-42.0573853 5.07565595 -47.52867289 5.04222338 -53 5 C-53 4.67 -53 4.34 -53 4 C-36.83 3.67 -20.66 3.34 -4 3 C-4 2.34 -4 1.68 -4 1 C-2 0 -2 0 0 0 Z " fill="currentColor" transform="translate(736,765)"/>
    <path d="M0 0 C0.66 0.66 1.32 1.32 2 2 C4.06874034 2.6425235 4.06874034 2.6425235 6 3 C3.31342788 3.96100105 0.62580289 4.91886249 -2.0625 5.875 C-2.81466797 6.14441406 -3.56683594 6.41382813 -4.34179688 6.69140625 C-8.85898121 8.29490891 -13.37632728 9.73509086 -18 11 C-18 10.34 -18 9.68 -18 9 C-17.43410156 8.89042969 -16.86820312 8.78085937 -16.28515625 8.66796875 C-15.55167969 8.50941406 -14.81820313 8.35085938 -14.0625 8.1875 C-13.33160156 8.03667969 -12.60070312 7.88585937 -11.84765625 7.73046875 C-11.23792969 7.48941406 -10.62820313 7.24835938 -10 7 C-9.67 6.01 -9.34 5.02 -9 4 C-6.93359375 2.83203125 -6.93359375 2.83203125 -4.4375 1.8125 C-3.19806641 1.29623047 -3.19806641 1.29623047 -1.93359375 0.76953125 C-1.29550781 0.51558594 -0.65742188 0.26164062 0 0 Z " fill="currentColor" transform="translate(468,389)"/>
    <path d="M0 0 C0.515625 0.391875 1.03125 0.78375 1.5625 1.1875 C-1.05128135 3.80128135 -4.10377135 5.1851547 -7.375 6.8125 C-8.00857422 7.13734375 -8.64214844 7.4621875 -9.29492188 7.796875 C-12.19910154 9.25049174 -14.14611795 10.1875 -17.4375 10.1875 C-13.95467547 5.05491648 -6.75462699 -2.25154233 0 0 Z " fill="currentColor" transform="translate(351.4375,340.8125)"/>
    <path d="M0 0 C6.88286612 0.65551106 10.9525376 3.62160464 15.375 8.75 C16.2575637 9.82718031 17.13531695 10.9084143 18 12 C16.140625 12.61328125 16.140625 12.61328125 14 13 C11.75 11.1875 11.75 11.1875 10 9 C10 8.34 10 7.68 10 7 C9.01 7 8.02 7 7 7 C7 6.34 7 5.68 7 5 C5.68 4.67 4.36 4.34 3 4 C3 3.01 3 2.02 3 1 C2.01 0.67 1.02 0.34 0 0 Z " fill="currentColor" transform="translate(701,214)"/>
    <path d="M0 0 C3.1875 1.5 3.1875 1.5 5 3 C4.67 3.66 4.34 4.32 4 5 C3.360625 4.46375 2.72125 3.9275 2.0625 3.375 C-1.79071357 1.64498575 -3.90015835 2.0025206 -7.90625 3.05078125 C-11.32113601 4.59894786 -12.3512904 6.7025808 -14 10 C-14.99 9.67 -15.98 9.34 -17 9 C-16.68330494 6.14974444 -15.75970952 4.64757396 -14.125 2.25 C-9.56701245 -1.03175103 -5.4505184 -0.78448241 0 0 Z " fill="currentColor" transform="translate(544,477)"/>
    <path d="M0 0 C-2.55573961 3.0171926 -5.38380793 4.2432533 -9 5.75 C-10.051875 6.19859375 -11.10375 6.6471875 -12.1875 7.109375 C-15 8 -15 8 -18 7 C-15.83845857 3.08220616 -13.19884501 1.91765987 -9.140625 0.52734375 C-5.99260471 -0.2481722 -3.22848653 -0.20178041 0 0 Z " fill="currentColor" transform="translate(675,221)"/>
    <path d="M0 0 C-2.61917481 3.31824282 -5.40241918 3.85229757 -9.4375 4.75 C-11.13712891 5.14445312 -11.13712891 5.14445312 -12.87109375 5.546875 C-15.73372387 5.96143816 -17.32548038 5.97255259 -20 5 C-14.15463729 1.10309153 -7.00037341 -2.27039138 0 0 Z " fill="currentColor" transform="translate(634,330)"/>
    <path d="M0 0 C0.66 0 1.32 0 2 0 C3.25834277 4.04174228 4.11165485 7.75204033 4 12 C1.86256113 15.63162006 -0.80155525 18.28200832 -4 21 C-4.66 20.67 -5.32 20.34 -6 20 C-5.01 18.02 -4.02 16.04 -3 14 C-2.34 14 -1.68 14 -1 14 C-0.06380187 10.84493858 0.1057123 8.03413498 0.0625 4.75 C0.05347656 3.85796875 0.04445313 2.9659375 0.03515625 2.046875 C0.02355469 1.37140625 0.01195312 0.6959375 0 0 Z " fill="currentColor" transform="translate(657,562)"/>
    <path d="M0 0 C11.89066059 6.74487472 11.89066059 6.74487472 15 14 C11.76056637 12.46712115 8.79464955 10.67413138 5.8125 8.6875 C4.93207031 8.11386719 4.05164063 7.54023438 3.14453125 6.94921875 C0.63086664 4.66448534 0.29195338 3.32597866 0 0 Z " fill="currentColor" transform="translate(602,300)"/>
    <path d="M0 0 C-7.59 2.64 -15.18 5.28 -23 8 C-23 7.34 -23 6.68 -23 6 C-21.35 5.67 -19.7 5.34 -18 5 C-18.33 4.01 -18.66 3.02 -19 2 C-14.85354444 -0.0104027 -11.56510839 -0.08453904 -7 0 C-4 -1 -4 -1 0 0 Z " fill="currentColor" transform="translate(625,335)"/>
    <path d="M0 0 C0.75 1.625 0.75 1.625 1 4 C-1.4823745 8.76615903 -4.19801984 11.59900992 -9 14 C-12.32939739 14.59311121 -15.62296865 14.8665205 -19 15 C-19 14.34 -19 13.68 -19 13 C-13.555 12.505 -13.555 12.505 -8 12 C-7.34 10.35 -6.68 8.7 -6 7 C-4.35704805 5.63755204 -2.69175663 4.30135125 -1 3 C-0.67 2.01 -0.34 1.02 0 0 Z " fill="currentColor" transform="translate(508,539)"/>
    <path d="M0 0 C-0.86435457 2.98595213 -1.35075262 4.60651674 -4.0625 6.25 C-7.28437172 7.07260555 -10.40107999 7.47114402 -13.70703125 7.78125 C-16.82347934 8.07856021 -19.90401183 8.53889538 -23 9 C-20.0086026 7.00573507 -17.59652859 6.13023348 -14.1875 5.0625 C-9.96588721 3.69953674 -4.32195158 0 0 0 Z " fill="currentColor" transform="translate(651,228)"/>
    <path d="M0 0 C2.24538034 3.84344382 3.1026736 7.9638019 4.125 12.25 C4.30675781 12.99507812 4.48851562 13.74015625 4.67578125 14.5078125 C5.12147499 16.3375026 5.56131959 18.16861575 6 20 C5.01 20.33 4.02 20.66 3 21 C1.86235649 16.73383684 1 13.43513689 1 9 C0.34 9 -0.32 9 -1 9 C-1.09765625 2.84765625 -1.09765625 2.84765625 -1 1 C-0.67 0.67 -0.34 0.34 0 0 Z " fill="currentColor" transform="translate(605,639)"/>
    <path d="M0 0 C2.64 0 5.28 0 8 0 C7.21625 0.5775 6.4325 1.155 5.625 1.75 C2.51862161 4.41261005 1.14493173 6.24922476 0.8046875 10.359375 C0.82789063 11.14828125 0.85109375 11.9371875 0.875 12.75 C0.89304687 13.54921875 0.91109375 14.3484375 0.9296875 15.171875 C0.95289063 15.77515625 0.97609375 16.3784375 1 17 C0.34 17 -0.32 17 -1 17 C-2.68103448 5.36206897 -2.68103448 5.36206897 0 0 Z " fill="currentColor" transform="translate(422,557)"/>
    <path d="M0 0 C-5.86590564 2.45924567 -11.73550972 4.91020791 -17.625 7.3125 C-18.42164063 7.63863281 -19.21828125 7.96476562 -20.0390625 8.30078125 C-22 9 -22 9 -24 9 C-24 8.01 -24 7.02 -24 6 C-20.75622826 4.79497901 -17.50417311 3.61411218 -14.25 2.4375 C-13.32960938 2.09525391 -12.40921875 1.75300781 -11.4609375 1.40039062 C-10.57148437 1.08134766 -9.68203125 0.76230469 -8.765625 0.43359375 C-7.94868164 0.13509521 -7.13173828 -0.16340332 -6.29003906 -0.47094727 C-3.78690737 -1.04922939 -2.40128262 -0.83176958 0 0 Z " fill="currentColor" transform="translate(600,344)"/>
    <path d="M0 0 C0.66 0 1.32 0 2 0 C2.36263859 5.8022175 1.25684543 9.63999211 -1 15 C-1.66 15 -2.32 15 -3 15 C-4.83508773 9.03596489 -2.71739052 5.24817912 0 0 Z " fill="currentColor" transform="translate(512,523)"/>
    <path d="M0 0 C0 0.66 0 1.32 0 2 C-6.55004254 4.69707634 -11.88486245 6.53699151 -19 6 C-19.66 4.35 -20.32 2.7 -21 1 C-20.2265625 1.495 -20.2265625 1.495 -19.4375 2 C-11.6299903 5.2030809 -7.28121311 0 0 0 Z " fill="currentColor" transform="translate(714,299)"/>
    <path d="M0 0 C-13.44874715 6.70387244 -13.44874715 6.70387244 -21 7 C-20.67 6.34 -20.34 5.68 -20 5 C-17.4375 4.375 -17.4375 4.375 -15 4 C-15 3.34 -15 2.68 -15 2 C-14.38511719 1.86722656 -13.77023437 1.73445312 -13.13671875 1.59765625 C-12.32847656 1.42105469 -11.52023437 1.24445313 -10.6875 1.0625 C-9.88699219 0.88847656 -9.08648438 0.71445313 -8.26171875 0.53515625 C-2.49090909 -0.83030303 -2.49090909 -0.83030303 0 0 Z " fill="currentColor" transform="translate(641,235)"/>
    <path d="M0 0 C0 3 0 3 -2.3125 5.625 C-6.42979714 9.26354166 -9.63949593 9.29239113 -15 9 C-15.66 8.34 -16.32 7.68 -17 7 C-14.08500057 6.20439236 -11.25438581 5.74677501 -8.25 5.4375 C-7.05117188 5.31181641 -7.05117188 5.31181641 -5.828125 5.18359375 C-5.22484375 5.12300781 -4.6215625 5.06242188 -4 5 C-4 4.34 -4 3.68 -4 3 C-2 1.375 -2 1.375 0 0 Z " fill="currentColor" transform="translate(616,699)"/>
    <path d="M0 0 C1.32 0 2.64 0 4 0 C4.55786268 1.59860649 5.09579568 3.20417905 5.625 4.8125 C5.92664063 5.70582031 6.22828125 6.59914063 6.5390625 7.51953125 C7 10 7 10 5 13 C0.59225513 4.738041 0.59225513 4.738041 0 0 Z " fill="currentColor" transform="translate(555,498)"/>
    <path d="M0 0 C0 0.66 0 1.32 0 2 C-2.2898234 3.0044134 -4.5816599 4.00367612 -6.875 5 C-7.52597656 5.28617187 -8.17695313 5.57234375 -8.84765625 5.8671875 C-13.7734375 8 -13.7734375 8 -16 8 C-16 7.01 -16 6.02 -16 5 C-13.70967689 4.16280617 -11.41789043 3.3301071 -9.125 2.5 C-8.47402344 2.26152344 -7.82304687 2.02304687 -7.15234375 1.77734375 C-2.2265625 0 -2.2265625 0 0 0 Z " fill="currentColor" transform="translate(491,383)"/>
    <path d="M0 0 C4.26737546 0.47415283 6.14301573 2.99650372 9 6 C9.99 6.66 10.98 7.32 12 8 C12 8.66 12 9.32 12 10 C11.01 10.33 10.02 10.66 9 11 C4.95526299 8.90680925 1.51364679 6.47673452 0 2.125 C0 1.42375 0 0.7225 0 0 Z " fill="currentColor" transform="translate(516,317)"/>
    <path d="M0 0 C-2.71520626 3.35407832 -5.96541819 4.6551394 -10 6 C-13.9375 5.6875 -13.9375 5.6875 -17 5 C-14.15819378 3.10546252 -11.68435185 1.99807186 -8.5 0.8125 C-7.5409375 0.44769531 -6.581875 0.08289063 -5.59375 -0.29296875 C-3 -1 -3 -1 0 0 Z " fill="currentColor" transform="translate(688,216)"/>
    <path d="M0 0 C0.66 1.32 1.32 2.64 2 4 C1.53980469 4.52078125 1.07960938 5.0415625 0.60546875 5.578125 C-1.38282113 8.57749173 -1.94979804 11.23713353 -2.6875 14.75 C-2.93886719 15.92046875 -3.19023437 17.0909375 -3.44921875 18.296875 C-3.72185547 19.63492188 -3.72185547 19.63492188 -4 21 C-4.66 21 -5.32 21 -6 21 C-3.16666667 3.16666667 -3.16666667 3.16666667 0 0 Z " fill="currentColor" transform="translate(468,668)"/>
    <path d="M0 0 C0 0.99 0 1.98 0 3 C4.62 3 9.24 3 14 3 C14 3.33 14 3.66 14 4 C10.70835171 4.02895225 7.41673601 4.0467823 4.125 4.0625 C3.18785156 4.07087891 2.25070312 4.07925781 1.28515625 4.08789062 C-0.05869141 4.09272461 -0.05869141 4.09272461 -1.4296875 4.09765625 C-2.67081299 4.10551147 -2.67081299 4.10551147 -3.93701172 4.11352539 C-6 4 -6 4 -8 3 C-8 2.34 -8 1.68 -8 1 C-5.10765685 0.17361624 -3.11257569 0 0 0 Z " fill="currentColor" transform="translate(413,414)"/>
    <path d="M0 0 C0.33 1.32 0.66 2.64 1 4 C-2.36796539 6.2132344 -5.01594197 7.43084885 -9 8 C-10.258125 8.185625 -11.51625 8.37125 -12.8125 8.5625 C-14.3903125 8.7790625 -14.3903125 8.7790625 -16 9 C-15.46890625 8.74476563 -14.9378125 8.48953125 -14.390625 8.2265625 C-11.44441531 6.71494511 -8.60567718 5.05115835 -5.75 3.375 C-4.67234375 2.74335937 -3.5946875 2.11171875 -2.484375 1.4609375 C-1.66453125 0.97882812 -0.8446875 0.49671875 0 0 Z " fill="currentColor" transform="translate(492,696)"/>
    <path d="M0 0 C1.27230469 0.00902344 2.54460937 0.01804687 3.85546875 0.02734375 C5.31919922 0.04474609 5.31919922 0.04474609 6.8125 0.0625 C6.8125 0.3925 6.8125 0.7225 6.8125 1.0625 C2.14048795 2.26818053 -2.40246292 2.15632426 -7.1875 2.0625 C-7.1875 2.7225 -7.1875 3.3825 -7.1875 4.0625 C-9.4975 4.3925 -11.8075 4.7225 -14.1875 5.0625 C-9.61912696 0.17906675 -6.5874871 -0.06043566 0 0 Z " fill="currentColor" transform="translate(438.1875,552.9375)"/>
    <path d="M0 0 C0.99 0.33 1.98 0.66 3 1 C2.73445312 1.59167969 2.46890625 2.18335938 2.1953125 2.79296875 C0.38863385 6.8349177 -1.40126853 10.8699437 -3 15 C-3.66 15 -4.32 15 -5 15 C-5 14.01 -5 13.02 -5 12 C-5.66 12.66 -6.32 13.32 -7 14 C-6.67 12.68 -6.34 11.36 -6 10 C-5.01 10 -4.02 10 -3 10 C-2.01 6.7 -1.02 3.4 0 0 Z " fill="currentColor" transform="translate(523,498)"/>
    <path d="M0 0 C0.33 1.32 0.66 2.64 1 4 C0.01 4.33 -0.98 4.66 -2 5 C-2.73080266 6.97746603 -3.39421747 8.98072489 -4 11 C-4.99 12.485 -4.99 12.485 -6 14 C-6.66 14 -7.32 14 -8 14 C-7.54965877 12.37276701 -7.08944646 10.74826336 -6.625 9.125 C-6.24214844 7.76761719 -6.24214844 7.76761719 -5.8515625 6.3828125 C-4.637344 2.98522862 -3.00280593 2.00187062 0 0 Z " fill="currentColor" transform="translate(323,362)"/>
    <path d="M0 0 C1.77049689 -0.05410687 3.54146849 -0.09284119 5.3125 -0.125 C6.29863281 -0.14820313 7.28476562 -0.17140625 8.30078125 -0.1953125 C11 0 11 0 14 2 C10.16275828 2.90413673 6.62497726 3.10576898 2.6875 3.0625 C1.61886719 3.05347656 0.55023437 3.04445313 -0.55078125 3.03515625 C-1.35902344 3.02355469 -2.16726563 3.01195312 -3 3 C-2.01 2.67 -1.02 2.34 0 2 C0 1.34 0 0.68 0 0 Z " fill="currentColor" transform="translate(593,551)"/>
    <path d="M0 0 C0.99 0 1.98 0 3 0 C2.34 3.63 1.68 7.26 1 11 C-2 8 -2 8 -2.3125 4.9375 C-2 2 -2 2 0 0 Z " fill="currentColor" transform="translate(473,647)"/>
    <path d="M0 0 C0 0.66 0 1.32 0 2 C-2.90600261 3.25664978 -4.79604584 4 -8 4 C-8.33 4.99 -8.66 5.98 -9 7 C-12.5625 8.1875 -12.5625 8.1875 -16 9 C-16 8.34 -16 7.68 -16 7 C-14.35 6.67 -12.7 6.34 -11 6 C-10.67 5.01 -10.34 4.02 -10 3 C-6.30414334 0.78248601 -4.36991627 0 0 0 Z " fill="currentColor" transform="translate(458,394)"/>
    <path d="M0 0 C0 0.66 0 1.32 0 2 C-3.82745451 3.74685308 -7.12442723 4.34886333 -11.3125 4.625 C-12.38113281 4.69976562 -13.44976562 4.77453125 -14.55078125 4.8515625 C-15.76314453 4.92503906 -15.76314453 4.92503906 -17 5 C-14.35029405 3.23352937 -11.98501901 2.02985003 -9.0625 0.8125 C-8.20785156 0.44769531 -7.35320312 0.08289063 -6.47265625 -0.29296875 C-3.81725523 -1.05225403 -2.55820275 -0.93187432 0 0 Z " fill="currentColor" transform="translate(390,327)"/>
    <path d="M0 0 C0.66 0 1.32 0 2 0 C0.81819916 5.02265357 -0.44992282 8.0949151 -4 12 C-5.3442623 6.62295082 -5.3442623 6.62295082 -3.6875 3.625 C-2 2 -2 2 0 2 C0 1.34 0 0.68 0 0 Z " fill="currentColor" transform="translate(767,736)"/>
    <path d="M0 0 C-1.2065625 0.37125 -1.2065625 0.37125 -2.4375 0.75 C-5.11544473 1.72953272 -5.11544473 1.72953272 -5.9375 3.9375 C-6.20896722 6.31450092 -6.20896722 6.31450092 -4 9 C-4.598125 8.690625 -5.19625 8.38125 -5.8125 8.0625 C-8.08956772 6.89790296 -8.08956772 6.89790296 -11 6 C-10.9375 4.1875 -10.9375 4.1875 -10 2 C-3.87234043 -1.29078014 -3.87234043 -1.29078014 0 0 Z " fill="currentColor" transform="translate(626,239)"/>
    <path d="M0 0 C0.66 0 1.32 0 2 0 C6.125 8.25 6.125 8.25 5 12 C4.34 12 3.68 12 3 12 C1.68 8.37 0.36 4.74 -1 1 C-0.67 0.67 -0.34 0.34 0 0 Z " fill="currentColor" transform="translate(718,231)"/>
    <path d="M0 0 C4.51790439 2.19789943 6.27516103 4.27938809 8 9 C8.1875 12.875 8.1875 12.875 8 16 C7.67 16 7.34 16 7 16 C6.67 13.03 6.34 10.06 6 7 C4.68 6.67 3.36 6.34 2 6 C2.33 5.01 2.66 4.02 3 3 C2.01 2.67 1.02 2.34 0 2 C0 1.34 0 0.68 0 0 Z " fill="currentColor" transform="translate(653,555)"/>
    <path d="M0 0 C0.66 0 1.32 0 2 0 C2.474375 0.804375 2.94875 1.60875 3.4375 2.4375 C4.79983672 5.2918076 4.79983672 5.2918076 8 6 C8.99 6.66 9.98 7.32 11 8 C11 8.66 11 9.32 11 10 C6.67998734 9.51999859 4.72677809 8.38496591 2 5 C0.75 2.25 0.75 2.25 0 0 Z " fill="currentColor" transform="translate(462,697)"/>
    <path d="M0 0 C0.66 0.33 1.32 0.66 2 1 C1.01 4.96 0.02 8.92 -1 13 C-1.66 12.67 -2.32 12.34 -3 12 C-2.88541307 10.56163249 -2.75790884 9.12429034 -2.625 7.6875 C-2.55539062 6.88699219 -2.48578125 6.08648438 -2.4140625 5.26171875 C-2 3 -2 3 0 0 Z " fill="currentColor" transform="translate(468,673)"/>
    <path d="M0 0 C-1.98 0.99 -3.96 1.98 -6 3 C-5.67 3.66 -5.34 4.32 -5 5 C-7.31 5.33 -9.62 5.66 -12 6 C-12.33 5.01 -12.66 4.02 -13 3 C-11.21189234 2.30329584 -9.41937948 1.61788811 -7.625 0.9375 C-6.62726563 0.55464844 -5.62953125 0.17179687 -4.6015625 -0.22265625 C-2 -1 -2 -1 0 0 Z " fill="currentColor" transform="translate(373,333)"/>
    <path d="M0 0 C-6.93 2.97 -6.93 2.97 -14 6 C-14.33 5.34 -14.66 4.68 -15 4 C-14.34 4 -13.68 4 -13 4 C-13 3.34 -13 2.68 -13 2 C-11.5882217 1.46605821 -10.17029756 0.94834896 -8.75 0.4375 C-7.96109375 0.14746094 -7.1721875 -0.14257812 -6.359375 -0.44140625 C-4 -1 -4 -1 0 0 Z " fill="currentColor" transform="translate(441,404)"/>
    <path d="M0 0 C0.33 0.66 0.66 1.32 1 2 C-1.28855702 2.86343731 -3.5801928 3.7159811 -5.875 4.5625 C-6.52597656 4.80935547 -7.17695313 5.05621094 -7.84765625 5.31054688 C-9.54497665 5.93173115 -11.27156776 6.47152252 -13 7 C-13.66 6.67 -14.32 6.34 -15 6 C-10.00186731 2.87616707 -5.76832116 1.2143834 0 0 Z " fill="currentColor" transform="translate(381,330)"/>
    <path d="M0 0 C0.66 0 1.32 0 2 0 C2.6875 2.8125 2.6875 2.8125 3 6 C1.6875 7.875 1.6875 7.875 0 9 C-0.66 9 -1.32 9 -2 9 C-1.34 6.03 -0.68 3.06 0 0 Z " fill="currentColor" transform="translate(507,534)"/>
    <path d="M0 0 C0.703125 1.765625 0.703125 1.765625 1 4 C-0.328125 5.921875 -0.328125 5.921875 -2.25 7.75 C-3.18585937 8.67039062 -3.18585937 8.67039062 -4.140625 9.609375 C-6 11 -6 11 -9 11 C-9 10.34 -9 9.68 -9 9 C-8.2575 8.5875 -7.515 8.175 -6.75 7.75 C-3.44959074 5.64973956 -1.99378652 3.32297754 0 0 Z " fill="currentColor" transform="translate(759,749)"/>
    <path d="M0 0 C-0.39803561 2.88575819 -0.79009069 3.82189513 -3.0625 5.75 C-3.701875 6.1625 -4.34125 6.575 -5 7 C-5.6875 5.1875 -5.6875 5.1875 -6 3 C-4.04862098 0.26806937 -3.44686768 0 0 0 Z M-8 4 C-7.01 4.495 -7.01 4.495 -6 5 C-6.99 5.495 -6.99 5.495 -8 6 C-8 5.34 -8 4.68 -8 4 Z " fill="currentColor" transform="translate(736,288)"/>
    <path d="M0 0 C-1.28965176 1.37562854 -2.62689293 2.70766393 -4 4 C-4.66 4 -5.32 4 -6 4 C-6 3.34 -6 2.68 -6 2 C-7.65 2.33 -9.3 2.66 -11 3 C-10 1 -10 1 -7.1875 -0.1875 C-4.14038924 -0.96421451 -2.86250637 -1.10096399 0 0 Z " fill="currentColor" transform="translate(521,278)"/>
    <path d="M0 0 C0.66 0.66 1.32 1.32 2 2 C-0.46153846 6.8 -0.46153846 6.8 -3.1875 7.8125 C-3.785625 7.874375 -4.38375 7.93625 -5 8 C-4.45773019 4.20411134 -2.79872437 2.52788007 0 0 Z " fill="currentColor" transform="translate(606,616)"/>
    <path d="M0 0 C0.33 1.32 0.66 2.64 1 4 C0.01 4.495 0.01 4.495 -1 5 C-1.68472665 6.88764903 -1.68472665 6.88764903 -2.125 9.0625 C-2.29257812 9.79597656 -2.46015625 10.52945313 -2.6328125 11.28515625 C-2.75398437 11.85105469 -2.87515625 12.41695312 -3 13 C-3.66 13 -4.32 13 -5 13 C-3.25740319 3.40546697 -3.25740319 3.40546697 0 0 Z " fill="currentColor" transform="translate(518,509)"/>
    <path d="M0 0 C0.33 0 0.66 0 1 0 C1 2.64 1 5.28 1 8 C0.01 8 -0.98 8 -2 8 C-2 8.66 -2 9.32 -2 10 C-2.66 9.67 -3.32 9.34 -4 9 C-2.68 6.03 -1.36 3.06 0 0 Z " fill="currentColor" transform="translate(769,728)"/>
    <path d="M0 0 C0.66 0 1.32 0 2 0 C3.17571451 3.67410785 3.07366746 7.16929183 3 11 C0.82905523 8.82905523 0.5137 7.84247144 -0.1875 4.9375 C-0.36667969 4.22464844 -0.54585937 3.51179687 -0.73046875 2.77734375 C-0.81941406 2.19082031 -0.90835938 1.60429688 -1 1 C-0.67 0.67 -0.34 0.34 0 0 Z " fill="currentColor" transform="translate(612,676)"/>
    <path d="M0 0 C0.99 0.33 1.98 0.66 3 1 C2 4 2 4 -0.375 5.25 C-3 6 -3 6 -6 5 C-4.06745228 2.9754262 -2.36841312 1.57894208 0 0 Z " fill="currentColor" transform="translate(492,286)"/>
    <path d="M0 0 C0 0.99 0 1.98 0 3 C-4.50353262 4.75747614 -8.17639811 5.19294408 -13 5 C-13 4.67 -13 4.34 -13 4 C-8.545 3.505 -8.545 3.505 -4 3 C-4 2.34 -4 1.68 -4 1 C-2 0 -2 0 0 0 Z " fill="currentColor" transform="translate(736,765)"/>
    <path d="M0 0 C0.95465783 2.16967689 1.14401212 3.56328793 0.3984375 5.82421875 C-0.35870385 7.5684743 -1.17609198 9.28627131 -2 11 C-2.33 11 -2.66 11 -3 11 C-3.32613618 6.32538149 -2.70582788 3.83325617 0 0 Z " fill="currentColor" transform="translate(314,378)"/>
    <path d="M0 0 C2.3125 0.1875 2.3125 0.1875 4 1 C0.67692308 4.93846154 0.67692308 4.93846154 -2.75 5.25 C-3.4925 5.1675 -4.235 5.085 -5 5 C-2.75 2.4375 -2.75 2.4375 0 0 Z " fill="currentColor" transform="translate(529,273)"/>
    <path d="M0 0 C2.7053871 4.05808065 5 8.04889399 5 13 C4.34 13 3.68 13 3 13 C-0.42857143 4.57142857 -0.42857143 4.57142857 0 0 Z " fill="currentColor" transform="translate(729,255)"/>
    <path d="M0 0 C2.29633824 3.44450737 2.54016485 5.93812283 3 10 C2.34 10 1.68 10 1 10 C0.63720544 8.71073008 0.28503302 7.41846728 -0.0625 6.125 C-0.35833984 5.04605469 -0.35833984 5.04605469 -0.66015625 3.9453125 C-1 2 -1 2 0 0 Z " fill="currentColor" transform="translate(313,734)"/>
    <path d="M0 0 C0 0.66 0 1.32 0 2 C-1.65 2.33 -3.3 2.66 -5 3 C-5 3.66 -5 4.32 -5 5 C-6.65 5 -8.3 5 -10 5 C-7.31217681 1.88778367 -4.19734673 0 0 0 Z " fill="currentColor" transform="translate(607,338)"/>
    <path d="M0 0 C0.99 0.33 1.98 0.66 3 1 C4.1875 4.5625 4.1875 4.5625 5 8 C4.01 8 3.02 8 2 8 C1.34 5.36 0.68 2.72 0 0 Z " fill="currentColor" transform="translate(733,270)"/>
    <path d="M0 0 C2.18975773 3.28463659 2.99806563 6.20696275 4 10 C3.34 10 2.68 10 2 10 C2 9.01 2 8.02 2 7 C1.01 7.33 0.02 7.66 -1 8 C-1.33 7.01 -1.66 6.02 -2 5 C-1.34 5 -0.68 5 0 5 C0 3.35 0 1.7 0 0 Z " fill="currentColor" transform="translate(725,244)"/>
    <path d="M0 0 C0.66 0 1.32 0 2 0 C2.99 3.3 3.98 6.6 5 10 C4.01 9.01 3.02 8.02 2 7 C2 6.01 2 5.02 2 4 C1.01 4.33 0.02 4.66 -1 5 C-0.67 3.35 -0.34 1.7 0 0 Z " fill="currentColor" transform="translate(718,227)"/>
    <path d="M0 0 C0 3 0 3 -2 5.1875 C-2.66 5.785625 -3.32 6.38375 -4 7 C-4.66 6.67 -5.32 6.34 -6 6 C-4.75453595 2.26360784 -3.36595047 1.81243487 0 0 Z " fill="currentColor" transform="translate(524,675)"/>
    <path d="M0 0 C1.98 0 3.96 0 6 0 C6.66 1.98 7.32 3.96 8 6 C4.08597051 4.73058503 2.20927127 3.48832306 0 0 Z " fill="currentColor" transform="translate(553,348)"/>
    <path d="M0 0 C1.32 0.33 2.64 0.66 4 1 C4 1.66 4 2.32 4 3 C2.1875 4.0625 2.1875 4.0625 0 5 C-0.99 4.67 -1.98 4.34 -3 4 C-2.01 2.68 -1.02 1.36 0 0 Z " fill="currentColor" transform="translate(652,227)"/>
    <path d="M0 0 C0.33 0.66 0.66 1.32 1 2 C-0.32 2.33 -1.64 2.66 -3 3 C-3.33 4.32 -3.66 5.64 -4 7 C-5.32 6.34 -6.64 5.68 -8 5 C-4.04 2.525 -4.04 2.525 0 0 Z " fill="currentColor" transform="translate(534,669)"/>
    <path d="M0 0 C0.99 0.33 1.98 0.66 3 1 C2.67 2.65 2.34 4.3 2 6 C0.68 5.34 -0.64 4.68 -2 4 C-1.34 2.68 -0.68 1.36 0 0 Z " fill="currentColor" transform="translate(526,488)"/>
    <path d="M0 0 C2.97 0.495 2.97 0.495 6 1 C6.33 2.32 6.66 3.64 7 5 C6.01 5 5.02 5 4 5 C4 4.34 4 3.68 4 3 C2.68 2.34 1.36 1.68 0 1 C0 0.67 0 0.34 0 0 Z " fill="currentColor" transform="translate(755,424)"/>
    <path d="M0 0 C0.99 0 1.98 0 3 0 C3 0.66 3 1.32 3 2 C3.66 2.33 4.32 2.66 5 3 C2.36 3.66 -0.28 4.32 -3 5 C-1.6875 2.5 -1.6875 2.5 0 0 Z " fill="currentColor" transform="translate(413,316)"/>
    <path d="M0 0 C1.98 0 3.96 0 6 0 C5.67 0.99 5.34 1.98 5 3 C1.9375 4.1875 1.9375 4.1875 -1 5 C-0.67 3.35 -0.34 1.7 0 0 Z " fill="currentColor" transform="translate(509,280)"/>
    <path d="M0 0 C0.99 0 1.98 0 3 0 C2.67 1.98 2.34 3.96 2 6 C1.01 5.67 0.02 5.34 -1 5 C-0.67 3.35 -0.34 1.7 0 0 Z " fill="currentColor" transform="translate(475,639)"/>
    <path d="M0 0 C3.465 1.485 3.465 1.485 7 3 C7 3.99 7 4.98 7 6 C3.62496331 4.8141763 1.35277269 3.72426311 -1 1 C-0.67 0.67 -0.34 0.34 0 0 Z " fill="currentColor" transform="translate(487,365)"/>
    <path d="M0 0 C0 3 0 3 -2.5 5.6875 C-3.325 6.450625 -4.15 7.21375 -5 8 C-5.66 7.67 -6.32 7.34 -7 7 C-4.66666667 4.66666667 -2.33333333 2.33333333 0 0 Z " fill="currentColor" transform="translate(658,575)"/>
    <path d="M0 0 C0.66 0.33 1.32 0.66 2 1 C2.625 4.0625 2.625 4.0625 3 7 C1.68 6.34 0.36 5.68 -1 5 C-0.67 3.35 -0.34 1.7 0 0 Z " fill="currentColor" transform="translate(573,537)"/>
</svg>