<?xml version="1.0" encoding="UTF-8"?>
<svg
        version="1.1"
        viewBox="0 0 1024 1024"
        xmlns="http://www.w3.org/2000/svg"
        fill="currentColor"
>
    <!-- Popcorn cone and other shapes -->
    <path transform="translate(476,585)" d="m0 0h77l20 1 3 1-12 150-12 148-1 6h-82l-6-82-7-101-8-118v-3l4-1z"/>
    <path transform="translate(511,379)"
          d="m0 0 5 2 12 7v14l-5 67 8 1 13 5 12 8 12 12 8 14 3 7 10-9 16-8 12-3h14l13 3 12 6 13 11 5 6 2-3 15-39 3-6 15-5 5 1 7 9-2 6-28 42 9 2 12 7 12 11 7 11 4 13v6l-14-2-27-5-43-6-53-5-32-2-25-1h-53l-58 3-56 5-45 6-41 7h-3v-7l4-12 7-11 11-11 10-6 5-2-4-7-11-16-12-18 1-5 7-7 7 1 13 5 7 18 8 21v3l7-2 9-10 8-7 16-8 14-3h13l12 3 16 8 8 7 2-3 6-11 9-10 8-7 16-8 12-3h6l-1-3-3-56v-22z"/>
    <path transform="translate(638,591)" d="m0 0 31 4 29 5 35 7 1 2-25 126-30 153-1 3h-74l1-15 11-102 20-177z"/>
    <path transform="translate(383,591)"
          d="m0 0h3l5 48 12 120 12 121v11h-72l-3-12-17-87-17-88-15-78-3-18 5-2 42-8 39-6z"/>
    <path transform="translate(697,247)"
          d="m0 0h7l6 4 4 9 4 4v9l-5 5-4 6-5 3-6 1-7-3-4-6-5-4-1-2v-9l4-5 4-2 4-8z"/>
    <path transform="translate(404,423)"
          d="m0 0h8l6 4 4 8 7 4 2 4v7l-4 5-12 4h-8l-6-5-1-8-1-4-3-6 1-7z"/>
    <path transform="translate(298,239)"
          d="m0 0h7l6 4 2 4v8l-4 6-4 2h-7l-6-4-3-6 1-7 4-5z"/>
    <path transform="translate(359,296)"
          d="m0 0 6 1 3 4-1 6-3 3h-6l-4-3v-7l3-3z"/>


    <!-- â­ Stars using CSS variable -->
    <path transform="translate(508,133)"
          d="m0 0h9l6 5 6 14 26 65v3l78 4 13 2 5 5 1 2v9l-6 7-11 9-14 12-11 9-13 11-14 11 1 8 16 72v10l-5 5-2 1h-9l-17-10-38-24-15-10-5 2-24 15-28 17-17 10-6 1-7-3-4-6v-7l18-77-1-5-14-11-14-12-11-9-17-14-11-10-2-9 4-7 6-3 45-3 41-2 16-38 17-42 4-5z"
          fill="var(--star-color, currentColor)"/>
    <path transform="translate(260,288)"
          fill="var(--star-color, currentColor)"
          d="m0 0h10l5 5 14 21 13 20 8 12 10-1 50-9h7l5 3 2 2v9l-10 13-13 16-8 10-9 11-2 2 1 6 15 29 12 24v8l-5 5-2 1-9-1-47-18-8-3-4 1-32 34-9 9-2 1h-8l-5-4-2-5 2-49v-15l-40-20-16-9-4-5-1-6 3-6 5-3 58-15h3l1-15 5-46 2-8z"/>
    <path transform="translate(761,288)"
          fill="var(--star-color, currentColor)"
          d="m0 0h9l5 4 2 10 3 49v10l16 4 41 14 6 4 2 4-1 7-5 5-30 14-27 12-2 62-3 5-4 3h-7l-6-4-9-11-10-11-18-22-9 2-40 13-13 4-7-1-4-4-1-5 3-8 14-23 12-20 5-9-14-19-13-18-12-17-1-6 3-6 4-2 11 1 48 11 11 3 2-4 12-17 12-16 11-15z"/>

    <!-- Remaining details -->
    <path transform="translate(636,382)" d="m0 0h6l3 3-1 7-16 41-3 6-1 1-7-1-1-2v-6l16-42z"/>
    <path transform="translate(574,428)" d="m0 0 7 1 4 4 1 6-3 5-3 2h-7l-5-4-1-6 3-6z"/>
    <path transform="translate(460,428)" d="m0 0h5l3 4 2 11-1 6-2 2h-6l-3-4-2-10 1-7z"/>
    <path transform="translate(254,527)" d="m0 0h6l5 4v7l-5 5h-6l-4-4-1-7z"/>
    <path transform="translate(600,464)" d="m0 0 7 1 3 5-1 7-4 3-7-1-3-4v-6z"/>
    <path transform="translate(760,527)" d="m0 0 7 1 3 4-1 7-5 4-5-1-4-4v-7z"/>
</svg>
